<?xml version="1.0" encoding="utf-8"?>
<!-- Generator: Adobe Illustrator 23.1.0, SVG Export Plug-In . SVG Version: 6.00 Build 0)  -->
<svg version="1.1" id="Ebene_1" xmlns="http://www.w3.org/2000/svg" xmlns:xlink="http://www.w3.org/1999/xlink" x="0px" y="0px"
	 viewBox="0 0 511.02 379.53" style="enable-background:new 0 0 511.02 379.53;" xml:space="preserve">
<style type="text/css">
	.st0{fill:#FFDB3E;}
	.st1{fill:#0B0D1B;}
</style>
<path class="st0" d="M502.92,304.68c2.77-14.96,4.23-30.38,4.23-46.14c0-139.19-112.84-252.03-252.03-252.03
	C115.94,6.51,3.1,119.35,3.1,258.54c0,15.76,1.46,31.18,4.23,46.14H502.92z"/>
<g>
	<path class="st1" d="M107.32,282.78h-1.71c-1.71,0-2.73-1.54-2.73-3.25v-57.59c0-16.75-7.01-26.14-25.29-26.14
		c-7.35,0-16.58,1.2-23.07,3.08v80.65c0,1.71-1.2,3.25-2.9,3.25h-1.71c-1.71,0-2.91-1.54-2.91-3.25v-121.5
		c0-1.71,1.2-3.25,2.91-3.25h1.71c1.71,0,2.9,1.54,2.9,3.25v34.18c6.66-1.71,15.55-3.08,23.07-3.08c23.75,0,32.64,13.67,32.64,32.81
		v57.59C110.23,281.24,109.2,282.78,107.32,282.78z"/>
	<path class="st1" d="M195.91,237.87h-57.76v3.59c0,28.71,13.84,34.86,30.93,34.86c7.52,0,16.92-1.2,25.29-2.91
		c1.71-0.34,3.59,0,3.59,2.22v1.2c0,1.88-0.68,2.73-3.25,3.25c-8.2,1.71-17.94,2.91-25.63,2.91c-21.19,0-38.45-9.23-38.45-41.53
		v-11.28c0-23.58,11.96-40.84,34.52-40.84c23.58,0,34,16.4,34,40.67v4.61C199.16,236.5,197.62,237.87,195.91,237.87z M191.64,230.01
		c0-21.53-7.18-34.01-26.49-34.01c-18.97,0-27,13.84-27,34.18v0.85h53.49V230.01z"/>
	<path class="st1" d="M260.44,282.26c-2.56,0.34-5.98,0.51-8.89,0.51c-12.13,0-19.31-3.76-19.31-18.46V197h-16.92
		c-1.88,0-3.25-1.03-3.25-2.74v-1.71c0-1.71,1.37-2.56,3.25-2.56h16.92v-17.6c0-1.71,1.03-3.25,2.91-3.25h1.88
		c1.71,0,2.74,1.54,2.74,3.25v17.6h20.34c1.88,0,3.25,0.85,3.25,2.56v1.71c0,1.71-1.37,2.74-3.25,2.74h-20.34v67.33
		c0,10.25,4.27,11.79,11.79,11.79h8.2c2.56,0,3.59,0.85,3.59,2.39v1.02C263.34,280.9,262.83,281.92,260.44,282.26z"/>
	<path class="st1" d="M288.12,282.78h-1.02c-1.71,0-3.25-1.54-3.25-3.25v-86.29c0-1.71,1.54-3.25,3.25-3.25h1.02
		c1.71,0,3.25,1.54,3.25,3.25v86.29C291.36,281.24,289.83,282.78,288.12,282.78z"/>
	<path class="st1" d="M376.63,279.53c-7.52,1.54-18.97,3.25-28.71,3.25c-23.58,0-33.49-16.92-33.49-41.53v-11.28
		c0-27,11.28-40.84,33.49-40.84c6.66,0,16.92,1.03,23.75,2.56v-33.66c0-1.71,1.2-3.25,2.9-3.25h1.71c1.71,0,2.91,1.54,2.91,3.25
		v118.25C379.2,278.33,378.68,279.02,376.63,279.53z M371.68,198.02c-6.49-1.37-17.09-2.22-23.75-2.22
		c-18.8,0-25.97,11.62-25.97,34.18v11.28c0,22.04,6.84,34.86,25.97,34.86c8.2,0,17.6-1.2,23.75-2.22V198.02z"/>
	<path class="st1" d="M459.17,281.75h-0.85c-1.88,0-3.42-1.54-3.42-3.42v-4.27c-8.37,4.61-18.45,8.72-29.05,8.72
		c-12.82,0-26.14-6.15-26.14-27.51v-2.22c0-17.6,11.11-26.32,42.21-26.32h13.16v-6.15c0-17.77-4.96-24.78-21.53-24.78
		c-11.28,0-16.23,0.68-24.26,1.54c-1.71,0.17-3.93,0-3.93-2.56v-1.03c0-2.22,1.37-2.73,3.93-3.07c7.18-0.86,12.99-1.54,24.26-1.54
		c23.07,0,29.05,12.99,29.05,31.44v57.76C462.59,280.21,461.05,281.75,459.17,281.75z M455.07,233.39h-13.16
		c-25.8,0-34.69,5.13-34.69,19.65v2.22c0,15.89,8.37,20.85,18.63,20.85c9.57,0,17.77-2.56,29.22-8.71V233.39z"/>
</g>
<path class="st1" d="M348.44,74.8c0,5.8-4.7,10.5-10.49,10.5c-5.8,0-10.5-4.7-10.5-10.5c0-5.8,4.7-10.49,10.5-10.49
	C343.74,64.31,348.44,69,348.44,74.8z"/>
</svg>
