<?xml version="1.0" encoding="utf-8"?>
<!-- Generator: Adobe Illustrator 24.0.1, SVG Export Plug-In . SVG Version: 6.00 Build 0)  -->
<svg version="1.1" id="Ebene_1" xmlns="http://www.w3.org/2000/svg" xmlns:xlink="http://www.w3.org/1999/xlink" x="0px" y="0px"
	 viewBox="0 0 120 120" style="enable-background:new 0 0 120 120;" xml:space="preserve">
<style type="text/css">
	.st0{fill:#FFFFFF;}
	.st1{fill:#FFFFFF;stroke:#1D1D1B;stroke-miterlimit:10;}
	.st2{fill:none;stroke:#1D1D1B;stroke-miterlimit:10;stroke-dasharray:2.9515,2.9515;}
	.st3{fill:none;stroke:#1D1D1B;stroke-miterlimit:10;stroke-dasharray:2.9833,2.9833;}
	.st4{fill:none;stroke:#1D1D1B;stroke-miterlimit:10;stroke-dasharray:3.4786,3.4786;}
	.st5{fill:none;stroke:#1D1D1B;stroke-miterlimit:10;stroke-dasharray:3.0509,3.0509;}
	.st6{fill:none;stroke:#1D1D1B;stroke-miterlimit:10;stroke-dasharray:3.3449,3.3449;}
	.st7{fill:#FFDB3F;}
</style>
<rect x="27.1" y="27.5" class="st0" width="85.4" height="85.4"/>
<rect x="7.5" y="7.1" class="st1" width="85.4" height="85.4"/>
<g>
	<g>
		<polyline class="st1" points="94.3,27.5 92.8,27.5 92.8,29 		"/>
		<line class="st2" x1="92.8" y1="32" x2="92.8" y2="89.5"/>
		<polyline class="st1" points="92.8,91 92.8,92.5 91.3,92.5 		"/>
		<line class="st3" x1="88.3" y1="92.5" x2="30.2" y2="92.5"/>
		<polyline class="st1" points="28.7,92.5 27.2,92.5 27.2,94 		"/>
		<line class="st4" x1="27.2" y1="97.5" x2="27.2" y2="109.6"/>
		<polyline class="st1" points="27.2,111.4 27.2,112.9 28.7,112.9 		"/>
		<line class="st5" x1="31.7" y1="112.9" x2="109.5" y2="112.9"/>
		<polyline class="st1" points="111,112.9 112.5,112.9 112.5,111.4 		"/>
		<line class="st5" x1="112.5" y1="108.3" x2="112.5" y2="30.5"/>
		<polyline class="st1" points="112.5,29 112.5,27.5 111,27.5 		"/>
		<line class="st6" x1="107.7" y1="27.5" x2="96" y2="27.5"/>
	</g>
</g>
<path class="st7" d="M79.4,44.6v-6.9h5.9v-5.1h-5.9v-6.9H55.3v6.9h-5.9v5.1h5.9v6.9h9.5V55h-9.5v6.9H45V55H20.8v6.9h-5.9V67h5.9v6.9
	H45V67h10.3v6.9h24.1V67h5.9v-5.1h-5.9V55h-9.5V44.6H79.4z M39.9,68.7H26v-8.6h13.9V68.7z M74.3,60.1v8.6H60.4v-8.6H74.3z
	 M60.4,39.5v-8.6h13.9v8.6H60.4z"/>
</svg>
